<svg xmlns="http://www.w3.org/2000/svg" viewBox="0 0 488.24 295.27"><g id="logo"><path d="M465.21,129.77c-13-16.59-35.59-8.57-42.23-1.93-10.1,10.1-4.55,28.95-15.62,61.16-17.12,49.79-46.13,88.86-48.67,93.64-.2.37.13.28.22.22,7.55-5.38,14.37-12.2,21.25-18.39q20.22-18.18,39.55-37.32c13.15-13.07,26.12-26.49,37.61-41.06C470.07,169.92,479.19,147.66,465.21,129.77Z"/><path d="M465.21,129.77a25,25,0,0,0-20.5-9.82,24.64,24.64,0,0,1,12.55,8.19c14.57,17.41,6.2,40-6,56.56-11,15-23.52,28.79-36.21,42.29q-18.63,19.81-38.29,38.63c-5.89,5.67-11.72,11.82-18.08,17.06-.14.31.15.23.23.18,7.55-5.38,14.37-12.2,21.25-18.39q20.22-18.18,39.55-37.32c13.15-13.07,26.12-26.49,37.61-41.06C470.07,169.92,479.19,147.66,465.21,129.77Z"/><path d="M455.85,138.86s25.2,25.4-34.58,79.52"/><path d="M445.05,128.18c-28,1-14.86,28.3-29.31,57.21"/><path d="M402.17,127.91l0,0v0c-3-5.27-9.36-12.29-32.14-19.84-17.38-5.76-40.17-10.43-66.57-15.84C284,88.18,262,83.66,238.9,78,127,50.65,37.9,11.33,37,10.94a1.14,1.14,0,0,0-1.19,1.92c.63.52,63.35,52.41,125.15,74.28,84.88,30,175,31.21,202.62,31.49,19.15.2,31.56,5.65,36.79,10.67a1.1,1.1,0,0,0,.77.31,1.2,1.2,0,0,0,.7-.23A1.17,1.17,0,0,0,402.17,127.91Z"/><path d="M402.14,127.87v0c-3-5.27-9.36-12.29-32.14-19.84-17.38-5.76-40.17-10.43-66.57-15.84C284,88.18,262,83.66,238.9,78,127,50.65,37.9,11.33,37,10.94a1.14,1.14,0,0,0-1.43.44,1.11,1.11,0,0,0-.16.75c117.76,61.41,165.76,74,253.4,87.61,93.93,14.63,99.6,16.51,112.39,29.85a1.14,1.14,0,0,0,.64-.21,1.17,1.17,0,0,0,.32-1.47Z"/><path d="M314.28,178.35c-44.88-5-98-14.19-96.32-20.21.89-2.84,17.06,6.62,80.31,6.24,63-1.11,82.35,12.7,90.26,31.06,12.37-29.91,18.62-57.81-13.2-58.92-38.13-2.07-163.47-2-246.72-44.88C42.8,52.25,7.68,9.17,10,28.1c2.43,17,33.41,72.61,89.57,112.17,54.16,41.72,134,64.32,186.55,74.2,55.35,10.41,66.54,15.91,63.86,38.87-2.12,20.88-8.14,31.3-6.41,29.31,1-1.41,12.72-14.78,31.89-57.77a19.39,19.39,0,0,0,1.07-3.2C381,202.81,348.63,183.75,314.28,178.35Z"/></g></svg>