<svg id="Capa_1" data-name="Capa 1" xmlns="http://www.w3.org/2000/svg" xmlns:xlink="http://www.w3.org/1999/xlink" viewBox="0 0 986.44 316.9"><defs><style>.cls-1{fill:url(#Degradado_sin_nombre);}.cls-2{fill:#fff;}</style><linearGradient id="Degradado_sin_nombre" x1="234.41" y1="-105.31" x2="234.41" y2="64.05" gradientTransform="translate(-139.69 202.89) scale(1.62)" gradientUnits="userSpaceOnUse"><stop offset="0" stop-color="#595e63"/><stop offset="0.16" stop-color="#2d3135"/><stop offset="0.4" stop-color="#9aa0a6"/><stop offset="0.5" stop-color="#3b4044"/><stop offset="0.6" stop-color="#868c92"/><stop offset="0.82" stop-color="#282c30"/><stop offset="1" stop-color="#5d6267"/></linearGradient></defs><path class="cls-1" d="M441.15,139.62c-11.64-14.87-32-7.69-37.87-1.74-9.08,9.1-4.06,26-14,54.88-15.37,44.68-41.4,79.75-43.64,84.08h0a224.57,224.57,0,0,0,19.06-16.47q18.15-16.34,35.5-33.5a419.43,419.43,0,0,0,33.92-36.49C445.53,175.62,453.7,155.79,441.15,139.62Zm0,0A22.56,22.56,0,0,0,422.79,131,22.38,22.38,0,0,1,434,138.34c13,15.64,5.58,35.87-5.33,50.71A416.76,416.76,0,0,1,396.18,227c-11.11,11.86-22.61,23.39-34.33,34.7-5.34,5.05-10.52,10.68-16.25,15.3h0a224.44,224.44,0,0,0,19-16.47q18.18-16.33,35.5-33.5a422.67,422.67,0,0,0,34-36.57C445.53,175.62,453.7,155.79,441.15,139.62Zm-8.25,8.16s22.61,22.8-31,71.35m21.19-80.93c-25.11.91-13.34,25.41-26.29,51.3M384.56,138h0c-2.66-4.73-8.38-11-28.82-17.78A563.21,563.21,0,0,0,296,106c-17.27-3.58-37.21-7.67-57.87-12.71A1207.78,1207.78,0,0,1,56.82,33a1,1,0,0,0-1.28.4,1.06,1.06,0,0,0,0,1.34c.56.48,56.85,47,112.4,66.72,76.41,27,157.32,28,182,28.48,17.3,0,28.32,5.08,33,9.61a.86.86,0,0,0,.66.24.83.83,0,0,0,.62,0,1,1,0,0,0,.57-1.31v0a.75.75,0,0,0-.27-.48Zm0,0h0c-2.66-4.7-8.38-11-28.82-17.78A560.68,560.68,0,0,0,296,106c-17.27-3.6-37.21-7.66-57.87-12.73A1205.15,1205.15,0,0,1,56.82,33a1,1,0,0,0-1.28.4.76.76,0,0,0,0,.69c105.7,55.07,148.75,66.31,227.38,78.5,84.27,13,89.37,14.85,100.82,26.83h.56a1.05,1.05,0,0,0,.29-1.31Zm-78.84,45.37c-40.25-4.32-88.08-12.7-86.46-18.12.83-2.54,15.3,5.93,72.07,5.58s73.94,11.18,81.09,27.73c11.1-26.85,16.68-51.89-11.85-52.87-34.19-1.87-146.8-1.77-221.35-40.26-77-35.36-108.32-74-106.48-56.88,2.17,15.3,30,65.16,80.29,100.63,48.58,37.37,120.11,57.74,167.38,66.6,49.73,9.31,59.74,14.25,57.42,34.88-1.9,18.69-7.32,28.06-5.74,26.27.85-1.26,11.4-13.35,28.61-51.86a15.31,15.31,0,0,0,.94-3c4-16.87-25.07-33.95-55.9-38.84Z"/><path class="cls-2" d="M572.78,176.07h-3a22.11,22.11,0,0,0-3-8.91,15.26,15.26,0,0,0-6.53-5.72,24.24,24.24,0,0,0-10.5-2H545v53.27h15.4v3h-49.7v-3h13.93V102.59H510.69v-3h84.39v31.75h-3a43.44,43.44,0,0,0-3.71-14.79,24,24,0,0,0-8.71-10.22q-5.7-3.72-14.52-3.72H545v53.89h4.72a27.08,27.08,0,0,0,10.5-1.78,14.24,14.24,0,0,0,6.53-5.31,20.53,20.53,0,0,0,3-8.7h3Zm32.91-76.5h32V212.69h13.4v3H605.69v-3h13.47V102.59H605.69Zm95.08,47.93H687.22l23.3,47.15,21.14-47.15H718.27v-3h27.09v3H735.3l-43.82,97.55a29,29,0,0,1-5.38,8.18,10.8,10.8,0,0,1-8.1,3.13h0a12,12,0,0,1-5.06-1.16,11,11,0,0,1-4.23-3.44A9.46,9.46,0,0,1,667,246h0a10.46,10.46,0,0,1,1.47-5.57,11,11,0,0,1,3.95-3.83,10.73,10.73,0,0,1,5.5-1.44h0a9.87,9.87,0,0,1,4.8,1.24,10.82,10.82,0,0,1,3.71,3.38,9.19,9.19,0,0,1,1.63,4.83h0l12.31-27.49-34.92-69.6h-8.75v-3h44.06Z"/><circle class="cls-2" cx="780.13" cy="169.26" r="10.07"/><path class="cls-2" d="M839.9,121.56h0A11.63,11.63,0,0,1,828.29,110h0A11.56,11.56,0,0,1,839.9,98.26h0a11.18,11.18,0,0,1,8.29,3.37,11.38,11.38,0,0,1,3.32,8.32h0a11.33,11.33,0,0,1-3.32,8.2A11.1,11.1,0,0,1,839.9,121.56Zm-19.59,22.92h28.88v68.21h10.3v3H820.31v-3h10.3V147.5h-10.3Zm74.49,72.31h0q-7,0-10.72-2.63a13.11,13.11,0,0,1-5-6.94,30.27,30.27,0,0,1-1.37-9.24h0V147.5h-10.6v-3h10.6V129a41,41,0,0,0,9.88-1.31,31.6,31.6,0,0,0,8.63-3.33h0v20.13h16.57v3H896.19v53.42q0,5.81,1.39,8t4.73,2.21h0a10.38,10.38,0,0,0,6.89-3,23.11,23.11,0,0,0,5.57-7.66h0l2.63,1.47a27.49,27.49,0,0,1-8.47,10.71Q903.47,216.8,894.8,216.79Z"/></svg>