<svg id="Capa_1" data-name="Capa 1" xmlns="http://www.w3.org/2000/svg" xmlns:xlink="http://www.w3.org/1999/xlink" viewBox="0 0 1265.98 316.9"><defs><style>.cls-1{fill:url(#Degradado_sin_nombre);}.cls-2{fill:#fff;}</style><linearGradient id="Degradado_sin_nombre" x1="234.41" y1="-105.31" x2="234.41" y2="64.05" gradientTransform="translate(-139.69 202.89) scale(1.62)" gradientUnits="userSpaceOnUse"><stop offset="0" stop-color="#595e63"/><stop offset="0.16" stop-color="#2d3135"/><stop offset="0.4" stop-color="#9aa0a6"/><stop offset="0.5" stop-color="#3b4044"/><stop offset="0.6" stop-color="#868c92"/><stop offset="0.82" stop-color="#282c30"/><stop offset="1" stop-color="#5d6267"/></linearGradient></defs><path class="cls-1" d="M441.15,139.62c-11.64-14.87-32-7.69-37.87-1.74-9.08,9.1-4.06,26-14,54.88-15.37,44.68-41.4,79.75-43.64,84.08h0a224.57,224.57,0,0,0,19.06-16.47q18.15-16.34,35.5-33.5a419.43,419.43,0,0,0,33.92-36.49C445.53,175.62,453.7,155.79,441.15,139.62Zm0,0A22.56,22.56,0,0,0,422.79,131,22.38,22.38,0,0,1,434,138.34c13,15.64,5.58,35.87-5.33,50.71A416.76,416.76,0,0,1,396.18,227c-11.11,11.86-22.61,23.39-34.33,34.7-5.34,5.05-10.52,10.68-16.25,15.3h0a224.44,224.44,0,0,0,19-16.47q18.18-16.33,35.5-33.5a422.67,422.67,0,0,0,34-36.57C445.53,175.62,453.7,155.79,441.15,139.62Zm-8.25,8.16s22.61,22.8-31,71.35m21.19-80.93c-25.11.91-13.34,25.41-26.29,51.3M384.56,138h0c-2.66-4.73-8.38-11-28.82-17.78A563.21,563.21,0,0,0,296,106c-17.27-3.58-37.21-7.67-57.87-12.71A1207.78,1207.78,0,0,1,56.82,33a1,1,0,0,0-1.28.4,1.06,1.06,0,0,0,0,1.34c.56.48,56.85,47,112.4,66.72,76.41,27,157.32,28,182,28.48,17.3,0,28.32,5.08,33,9.61a.86.86,0,0,0,.66.24.83.83,0,0,0,.62,0,1,1,0,0,0,.57-1.31v0a.75.75,0,0,0-.27-.48Zm0,0h0c-2.66-4.7-8.38-11-28.82-17.78A560.68,560.68,0,0,0,296,106c-17.27-3.6-37.21-7.66-57.87-12.73A1205.15,1205.15,0,0,1,56.82,33a1,1,0,0,0-1.28.4.76.76,0,0,0,0,.69c105.7,55.07,148.75,66.31,227.38,78.5,84.27,13,89.37,14.85,100.82,26.83h.56a1.05,1.05,0,0,0,.29-1.31Zm-78.84,45.37c-40.25-4.32-88.08-12.7-86.46-18.12.83-2.54,15.3,5.93,72.07,5.58s73.94,11.18,81.09,27.73c11.1-26.85,16.68-51.89-11.85-52.87-34.19-1.87-146.8-1.77-221.35-40.26-77-35.36-108.32-74-106.48-56.88,2.17,15.3,30,65.16,80.29,100.63,48.58,37.37,120.11,57.74,167.38,66.6,49.73,9.31,59.74,14.25,57.42,34.88-1.9,18.69-7.32,28.06-5.74,26.27.85-1.26,11.4-13.35,28.61-51.86a15.31,15.31,0,0,0,.94-3c4-16.87-25.07-33.95-55.9-38.84Z"/><path class="cls-2" d="M675.55,173.37h-4.46a32.9,32.9,0,0,0-4.47-13.17,22.59,22.59,0,0,0-9.67-8.47q-6.26-3-15.53-3h-7v78.8h22.8V232H583.69v-4.47h20.62V64.67H583.69V60.2H708.54v47h-4.47a64.43,64.43,0,0,0-5.49-21.88A35.38,35.38,0,0,0,685.7,70.17q-8.43-5.51-21.49-5.5H634.43v79.72h7q9.27,0,15.53-2.63a21.1,21.1,0,0,0,9.67-7.86A30.43,30.43,0,0,0,671.09,121h4.46ZM724.23,60.2h47.43V227.55h19.81V232H724.23v-4.47h19.94V64.67H724.23ZM864.9,131.11h-20l34.48,69.76,31.27-69.76H890.78v-4.47h40.1v4.47H916L851.15,275.43a43.05,43.05,0,0,1-7.95,12.1q-4.53,4.64-12,4.63h0a17.6,17.6,0,0,1-7.49-1.72,16.13,16.13,0,0,1-6.25-5.09,13.91,13.91,0,0,1-2.52-8.54h0a15.49,15.49,0,0,1,2.17-8.25A16.25,16.25,0,0,1,823,262.9a15.93,15.93,0,0,1,8.14-2.13h0a14.4,14.4,0,0,1,7.1,1.84,15.93,15.93,0,0,1,5.5,5,13.61,13.61,0,0,1,2.4,7.15h0l18.21-40.67-51.66-103H799.72v-4.47H864.9Z"/><circle class="cls-2" cx="982.31" cy="163.29" r="14.89"/><path class="cls-2" d="M1070.74,92.73h0a17.21,17.21,0,0,1-17.19-17.18h0a17.12,17.12,0,0,1,17.19-17.29h0a16.5,16.5,0,0,1,12.25,5,16.75,16.75,0,0,1,4.93,12.3h0A16.71,16.71,0,0,1,1083,87.69,16.43,16.43,0,0,1,1070.74,92.73Zm-29,33.91h42.72V227.55h15.24V232h-58v-4.47H1057V131.11h-15.23Zm110.19,107h0q-10.42,0-15.85-3.9a19.45,19.45,0,0,1-7.45-10.26,45.06,45.06,0,0,1-2-13.68h0V131.11h-15.69v-4.47h15.69V103.73a60.93,60.93,0,0,0,14.62-2A46.38,46.38,0,0,0,1154,96.86h0v29.78h24.51v4.47H1154v79q0,8.6,2.06,11.85t7,3.27h0q5.16,0,10.19-4.46a34.33,34.33,0,0,0,8.25-11.34h0l3.9,2.17a41,41,0,0,1-12.53,15.86Q1164.77,233.63,1152,233.63Z"/></svg>