<svg id="Capa_1" data-name="Capa 1" xmlns="http://www.w3.org/2000/svg" xmlns:xlink="http://www.w3.org/1999/xlink" viewBox="0 0 473.8 126.8"><defs><style>.cls-1{fill:url(#Degradado_sin_nombre);}.cls-2{fill:url(#Degradado_sin_nombre_2);}.cls-3{fill:url(#Degradado_sin_nombre_3);}.cls-4{fill:url(#Degradado_sin_nombre_4);}</style><linearGradient id="Degradado_sin_nombre" x1="39.84" y1="293.79" x2="39.84" y2="230.34" gradientTransform="matrix(1.62, 0, 0, -1.62, 25.23, 487.85)" gradientUnits="userSpaceOnUse"><stop offset="0" stop-color="#595e63"/><stop offset="0.16" stop-color="#2d3135"/><stop offset="0.4" stop-color="#9aa0a6"/><stop offset="0.5" stop-color="#3b4044"/><stop offset="0.6" stop-color="#868c92"/><stop offset="0.82" stop-color="#282c30"/><stop offset="1" stop-color="#5d6267"/></linearGradient><linearGradient id="Degradado_sin_nombre_2" x1="90.37" y1="265.92" x2="90.37" y2="163.17" gradientTransform="matrix(1, 0, 0, -1, 184.6, 277.97)" xlink:href="#Degradado_sin_nombre"/><linearGradient id="Degradado_sin_nombre_3" x1="188.59" y1="265.92" x2="188.59" y2="163.17" gradientTransform="matrix(1, 0, 0, -1, 184.6, 277.97)" xlink:href="#Degradado_sin_nombre"/><linearGradient id="Degradado_sin_nombre_4" x1="245.89" y1="265.92" x2="245.89" y2="163.17" gradientTransform="matrix(1, 0, 0, -1, 184.6, 277.97)" xlink:href="#Degradado_sin_nombre"/></defs><path class="cls-1" d="M165.09,52.12c-4.36-5.57-12-2.88-14.19-.65-3.4,3.41-1.52,9.72-5.25,20.56-5.76,16.74-15.51,29.88-16.35,31.5h0a83.76,83.76,0,0,0,7.14-6.17q6.8-6.12,13.3-12.55a158,158,0,0,0,12.71-13.67C166.73,65.61,169.79,58.18,165.09,52.12Zm0,0a8.46,8.46,0,0,0-6.88-3.24,8.42,8.42,0,0,1,4.21,2.76c4.86,5.86,2.09,13.44-2,19a155.6,155.6,0,0,1-12.18,14.22c-4.16,4.44-8.47,8.76-12.86,13-2,1.89-3.94,4-6.09,5.73h0a83.76,83.76,0,0,0,7.14-6.17q6.81-6.12,13.3-12.55a158.55,158.55,0,0,0,12.73-13.7C166.73,65.61,169.79,58.18,165.09,52.12ZM162,55.18s8.47,8.54-11.63,26.73m7.94-30.32c-9.41.34-5,9.52-9.85,19.22m-4.57-19.3h0c-1-1.77-3.14-4.13-10.8-6.66a211.44,211.44,0,0,0-22.37-5.33c-6.47-1.34-13.94-2.87-21.68-4.76A452.58,452.58,0,0,1,21.1,12.18a.38.38,0,0,0-.48.15.39.39,0,0,0,0,.5c.21.18,21.3,17.62,42.11,25,28.63,10.11,58.94,10.49,68.2,10.67,6.48,0,10.61,1.9,12.38,3.6a.34.34,0,0,0,.25.09.3.3,0,0,0,.23,0,.38.38,0,0,0,.21-.5A.28.28,0,0,0,143.9,51.51Zm0,0h0c-1-1.76-3.14-4.13-10.8-6.66a209,209,0,0,0-22.37-5.32c-6.47-1.35-13.94-2.87-21.68-4.77A451.37,451.37,0,0,1,21.1,12.18a.38.38,0,0,0-.48.15.3.3,0,0,0,0,.26C60.22,33.22,76.35,37.43,105.81,42c31.57,4.86,33.48,5.56,37.77,10.05h.21a.39.39,0,0,0,.11-.49Zm-29.54,17c-15.08-1.62-33-4.76-32.39-6.79.31-.95,5.73,2.22,27,2.09S136.66,68,139.34,74.2c4.16-10.06,6.25-19.44-4.44-19.81-12.81-.7-55-.66-82.93-15.08C23.11,26.06,11.39,11.58,12.08,18c.81,5.73,11.23,24.41,30.08,37.7,18.2,14,45,21.63,62.71,24.95,18.63,3.49,22.38,5.34,21.51,13.07-.71,7-2.74,10.51-2.15,9.84.32-.47,4.27-5,10.72-19.43A5.82,5.82,0,0,0,135.3,83C136.79,76.68,125.91,70.28,114.36,68.45Z"/><path class="cls-2" d="M239.3,63.17h-2a14.34,14.34,0,0,0-1.95-5.75,9.9,9.9,0,0,0-4.22-3.7,15.82,15.82,0,0,0-6.78-1.3h-3.05V86.83h10v2H199.2v-2h9V15.72h-9v-2h54.5v20.5h-1.95a28.1,28.1,0,0,0-2.4-9.55,15.46,15.46,0,0,0-5.62-6.6,16.85,16.85,0,0,0-9.38-2.4h-13v34.8h3.05a17.45,17.45,0,0,0,6.78-1.15,9.16,9.16,0,0,0,4.22-3.43,13.22,13.22,0,0,0,1.95-5.62h2Zm21.25-49.4h20.7V86.83h8.66v2H260.55v-2h8.7V15.72h-8.7Zm61.41,31h-8.75l15.05,30.46,13.65-30.46h-8.65V42.77h17.5v1.95h-6.5l-28.3,63a18.82,18.82,0,0,1-3.47,5.28,7,7,0,0,1-5.23,2h0a7.72,7.72,0,0,1-3.27-.75,7,7,0,0,1-2.73-2.22,6,6,0,0,1-1.1-3.73h0a6.67,6.67,0,0,1,.95-3.6,7,7,0,0,1,2.55-2.47,6.92,6.92,0,0,1,3.55-.93h0a6.36,6.36,0,0,1,3.1.8,7,7,0,0,1,2.4,2.18,6,6,0,0,1,1.05,3.12h0l7.95-17.75-22.55-45h-5.65V42.77H322Z"/><circle class="cls-3" cx="373.21" cy="58.77" r="6.5"/><path class="cls-4" d="M411.82,28h0a7.51,7.51,0,0,1-7.5-7.5h0a7.48,7.48,0,0,1,7.5-7.55h0a7.22,7.22,0,0,1,5.35,2.18,7.35,7.35,0,0,1,2.15,5.37h0a7.32,7.32,0,0,1-2.15,5.3A7.16,7.16,0,0,1,411.82,28Zm-12.65,14.8h18.65V86.83h6.65v2h-25.3v-2h6.65V44.72h-6.65Zm48.1,46.71h0q-4.54,0-6.92-1.7a8.5,8.5,0,0,1-3.25-4.48,19.54,19.54,0,0,1-.88-6h0V44.72h-6.85V42.77h6.85v-10a26.46,26.46,0,0,0,6.38-.85,20.24,20.24,0,0,0,5.57-2.15h0v13h10.7v1.95h-10.7V79.23q0,3.75.9,5.17a3.33,3.33,0,0,0,3.05,1.43h0a6.71,6.71,0,0,0,4.45-2,14.86,14.86,0,0,0,3.6-4.95h0l1.7.95a17.86,17.86,0,0,1-5.47,6.92A14.71,14.71,0,0,1,447.27,89.48Z"/></svg>