<svg id="Capa_1" data-name="Capa 1" xmlns="http://www.w3.org/2000/svg" xmlns:xlink="http://www.w3.org/1999/xlink" viewBox="0 0 656.71 179.56"><defs><style>.cls-1{fill:url(#Degradado_sin_nombre);}</style><linearGradient id="Degradado_sin_nombre" x1="191.17" y1="-348.3" x2="191.17" y2="-236.14" gradientTransform="translate(-139.69 575.24) scale(1.62)" gradientUnits="userSpaceOnUse"><stop offset="0" stop-color="#595e63"/><stop offset="0.16" stop-color="#2d3135"/><stop offset="0.4" stop-color="#9aa0a6"/><stop offset="0.5" stop-color="#3b4044"/><stop offset="0.6" stop-color="#868c92"/><stop offset="0.82" stop-color="#282c30"/><stop offset="1" stop-color="#5d6267"/></linearGradient></defs><path class="cls-1" d="M303.18,82.07C295.48,72.23,282,77,278.1,80.93c-6,6-2.68,17.18-9.28,36.34-10.18,29.59-27.41,52.82-28.9,55.68h0A148.85,148.85,0,0,0,252.54,162q12-10.81,23.51-22.18a280.46,280.46,0,0,0,22.47-24.16C306.08,105.92,311.49,92.79,303.18,82.07Zm0,0A14.92,14.92,0,0,0,291,76.35a14.92,14.92,0,0,1,7.45,4.88c8.59,10.35,3.69,23.75-3.54,33.58A277.13,277.13,0,0,1,273.4,140c-7.35,7.85-15,15.48-22.73,23-3.54,3.34-7,7.07-10.77,10.13h0a147.31,147.31,0,0,0,12.62-10.91q12-10.82,23.51-22.19a280.08,280.08,0,0,0,22.51-24.21C306.08,105.92,311.49,92.79,303.18,82.07Zm-5.46,5.41s15,15.1-20.55,47.25m14-53.59c-16.63.6-8.84,16.83-17.41,34M265.71,81h0c-1.77-3.13-5.55-7.3-19.09-11.78a375,375,0,0,0-39.54-9.42c-11.44-2.37-24.64-5.07-38.32-8.41A799.18,799.18,0,0,1,48.66,11.47a.69.69,0,0,0-.85.27.69.69,0,0,0,0,.88c.37.32,37.65,31.15,74.44,44.19C172.86,74.69,226.43,75.36,242.8,75.68c11.46,0,18.76,3.35,21.89,6.36a.59.59,0,0,0,.44.16.55.55,0,0,0,.4,0,.67.67,0,0,0,.38-.87v0a.5.5,0,0,0-.18-.31Zm0,0h0c-1.77-3.11-5.55-7.3-19.09-11.78a372.4,372.4,0,0,0-39.54-9.4c-11.44-2.39-24.64-5.07-38.32-8.43A797.67,797.67,0,0,1,48.66,11.47a.69.69,0,0,0-.85.27.53.53,0,0,0,0,.46c70,36.47,98.51,43.91,150.59,52C254.2,72.78,257.58,74,265.16,82h.37a.7.7,0,0,0,.2-.87Zm-52.22,30.05c-26.65-2.87-58.33-8.42-57.25-12,.55-1.68,10.13,3.93,47.73,3.7s49,7.4,53.7,18.36c7.35-17.78,11.05-34.36-7.85-35-22.64-1.24-97.22-1.17-146.59-26.66-51-23.42-71.73-49-70.51-37.67C34.15,31.89,52.57,64.91,85.89,88.4c32.17,24.75,79.54,38.24,110.85,44.11,32.93,6.16,39.56,9.43,38,23.1C233.5,168,229.92,174.19,231,173c.56-.83,7.55-8.84,18.95-34.34a11,11,0,0,0,.62-2c2.63-11.17-16.6-22.49-37-25.72Z"/><path d="M390.36,106.21h-2a14.77,14.77,0,0,0-2-5.89,10.16,10.16,0,0,0-4.33-3.8,16.25,16.25,0,0,0-6.95-1.33H372v35.28h10.2v2H349.23v-2h9.23V57.55h-9.23v-2h55.89v21h-2a28.58,28.58,0,0,0-2.46-9.8A15.82,15.82,0,0,0,394.9,60a17.3,17.3,0,0,0-9.62-2.47H372V93.24h3.13A17.88,17.88,0,0,0,382,92.06a9.45,9.45,0,0,0,4.33-3.51,13.79,13.79,0,0,0,2-5.77h2Zm21.79-50.65h21.23v74.91h8.87v2h-30.1v-2h8.92V57.55h-8.92Zm63,31.73h-9l15.44,31.23,14-31.23H486.7v-2h17.95v2H498L469,151.9a19.23,19.23,0,0,1-3.56,5.42,7.16,7.16,0,0,1-5.36,2.07h0a7.91,7.91,0,0,1-3.35-.77,7.11,7.11,0,0,1-2.8-2.28,6.18,6.18,0,0,1-1.13-3.82h0a6.92,6.92,0,0,1,1-3.7,7.3,7.3,0,0,1,6.26-3.48h0a6.44,6.44,0,0,1,3.18.82,7.1,7.1,0,0,1,2.46,2.23,6.16,6.16,0,0,1,1.08,3.2h0l8.15-18.2-23.13-46.1h-5.79v-2h29.17Z"/><circle cx="527.67" cy="101.7" r="6.67"/><path d="M567.26,70.12h0a7.72,7.72,0,0,1-7.7-7.69h0a7.68,7.68,0,0,1,7.7-7.75h0a7.4,7.4,0,0,1,5.48,2.24A7.52,7.52,0,0,1,575,62.43h0a7.48,7.48,0,0,1-2.21,5.43A7.34,7.34,0,0,1,567.26,70.12Zm-13,15.17h19.13v45.18h6.82v2h-26v-2h6.82V87.29h-6.82Zm49.33,47.9h0c-3.11,0-5.48-.59-7.1-1.75a8.74,8.74,0,0,1-3.33-4.59,20.22,20.22,0,0,1-.9-6.12h0V87.29h-7v-2h7V75a27.35,27.35,0,0,0,6.54-.87A20.68,20.68,0,0,0,604.53,72h0V85.29h11v2h-11v35.38q0,3.85.93,5.31a3.4,3.4,0,0,0,3.12,1.46h0a6.89,6.89,0,0,0,4.57-2,15.38,15.38,0,0,0,3.69-5.07h0l1.74,1a18.27,18.27,0,0,1-5.61,7.1A15.06,15.06,0,0,1,603.61,133.19Z"/></svg>